<svg xmlns="http://www.w3.org/2000/svg" xmlns:xlink="http://www.w3.org/1999/xlink" version="1.1" width="256" height="256" viewBox="0 0 256 256" xml:space="preserve">
<g style="stroke: none; stroke-width: 0; stroke-dasharray: none; stroke-linecap: butt; stroke-linejoin: miter; stroke-miterlimit: 10; fill: none; fill-rule: nonzero; opacity: 1;" transform="translate(1.4065934065934016 1.4065934065934016) scale(2.81 2.81)">
	<path d="M 11.071 44.998 h 42.415 c 5.562 0 10.071 5.597 10.071 12.501 S 59.048 70 53.486 70 H 11.071" style="stroke: none; stroke-width: 1; stroke-dasharray: none; stroke-linecap: butt; stroke-linejoin: miter; stroke-miterlimit: 10; fill: rgb(214,112,19); fill-rule: nonzero; opacity: 1;" transform=" matrix(1 0 0 1 0 0) " stroke-linecap="round"/>
	<ellipse cx="11.071" cy="57.501" rx="10.071" ry="12.501" style="stroke: none; stroke-width: 1; stroke-dasharray: none; stroke-linecap: butt; stroke-linejoin: miter; stroke-miterlimit: 10; fill: rgb(255,190,112); fill-rule: nonzero; opacity: 1;" transform=" matrix(1 0 0 1 0 0) "/>
	<path d="M 36.517 44.998 h 42.415 c 5.562 0 10.071 5.597 10.071 12.501 S 84.494 70 78.932 70 H 36.517" style="stroke: none; stroke-width: 1; stroke-dasharray: none; stroke-linecap: butt; stroke-linejoin: miter; stroke-miterlimit: 10; fill: rgb(214,112,19); fill-rule: nonzero; opacity: 1;" transform=" matrix(1 0 0 1 0 0) " stroke-linecap="round"/>
	<ellipse cx="36.521" cy="57.501" rx="10.071" ry="12.501" style="stroke: none; stroke-width: 1; stroke-dasharray: none; stroke-linecap: butt; stroke-linejoin: miter; stroke-miterlimit: 10; fill: rgb(255,190,112); fill-rule: nonzero; opacity: 1;" transform=" matrix(1 0 0 1 0 0) "/>
	<path d="M 11.07 71.001 c -1.306 0 -2.612 -0.281 -3.857 -0.844 c -5.654 -2.555 -8.599 -10.278 -6.565 -17.215 c 1.095 -3.735 3.469 -6.679 6.514 -8.078 c 2.498 -1.149 5.255 -1.156 7.762 -0.023 l 0 0 c 5.654 2.555 8.599 10.278 6.565 17.215 c -1.095 3.736 -3.469 6.68 -6.514 8.079 C 13.716 70.712 12.394 71.001 11.07 71.001 z M 11.065 45.99 c -1.033 0 -2.066 0.23 -3.07 0.691 c -2.518 1.156 -4.497 3.644 -5.43 6.823 c -1.764 6.017 0.69 12.67 5.47 14.83 c 2.001 0.904 4.111 0.898 6.103 -0.018 c 2.519 -1.157 4.498 -3.644 5.43 -6.824 c 1.764 -6.017 -0.69 -12.67 -5.47 -14.83 C 13.106 46.215 12.086 45.99 11.065 45.99 z" style="stroke: none; stroke-width: 1; stroke-dasharray: none; stroke-linecap: butt; stroke-linejoin: miter; stroke-miterlimit: 10; fill: rgb(0,0,0); fill-rule: nonzero; opacity: 1;" transform=" matrix(1 0 0 1 0 0) " stroke-linecap="round"/>
	<path d="M 11.069 65.089 c -0.754 0 -1.509 -0.162 -2.228 -0.487 c -0.503 -0.228 -0.727 -0.82 -0.499 -1.323 c 0.228 -0.503 0.82 -0.728 1.323 -0.499 c 0.925 0.419 1.902 0.415 2.824 -0.008 c 1.204 -0.553 2.153 -1.756 2.607 -3.3 c 0.865 -2.954 -0.312 -6.207 -2.625 -7.253 c -0.925 -0.419 -1.903 -0.417 -2.825 0.009 c -1.203 0.553 -2.152 1.756 -2.605 3.3 c -0.155 0.529 -0.712 0.835 -1.241 0.679 c -0.53 -0.155 -0.834 -0.711 -0.678 -1.241 c 0.615 -2.1 1.96 -3.76 3.689 -4.555 c 1.442 -0.663 3.035 -0.669 4.484 -0.014 c 3.186 1.441 4.855 5.764 3.72 9.638 c -0.616 2.101 -1.961 3.761 -3.691 4.555 C 12.597 64.923 11.834 65.089 11.069 65.089 z" style="stroke: none; stroke-width: 1; stroke-dasharray: none; stroke-linecap: butt; stroke-linejoin: miter; stroke-miterlimit: 10; fill: rgb(0,0,0); fill-rule: nonzero; opacity: 1;" transform=" matrix(1 0 0 1 0 0) " stroke-linecap="round"/>
	<path d="M 36.517 46.006 H 11.068 c -0.552 0 -1 -0.448 -1 -1.001 c 0 -0.552 0.448 -1 1 -1 h 25.449 c 0.552 0 1 0.448 1 1 C 37.517 45.558 37.069 46.006 36.517 46.006 z" style="stroke: none; stroke-width: 1; stroke-dasharray: none; stroke-linecap: butt; stroke-linejoin: miter; stroke-miterlimit: 10; fill: rgb(0,0,0); fill-rule: nonzero; opacity: 1;" transform=" matrix(1 0 0 1 0 0) " stroke-linecap="round"/>
	<path d="M 36.517 71 H 11.068 c -0.552 0 -1 -0.447 -1 -1 s 0.448 -1 1 -1 h 25.449 c 0.552 0 1 0.447 1 1 S 37.069 71 36.517 71 z" style="stroke: none; stroke-width: 1; stroke-dasharray: none; stroke-linecap: butt; stroke-linejoin: miter; stroke-miterlimit: 10; fill: rgb(0,0,0); fill-rule: nonzero; opacity: 1;" transform=" matrix(1 0 0 1 0 0) " stroke-linecap="round"/>
	<path d="M 36.517 71 c -6.104 0 -11.071 -6.056 -11.071 -13.501 c 0 -7.444 4.967 -13.5 11.071 -13.5 s 11.071 6.057 11.071 13.5 C 47.588 64.944 42.621 71 36.517 71 z M 36.517 45.999 c -5.002 0 -9.071 5.159 -9.071 11.5 S 31.515 69 36.517 69 s 9.071 -5.16 9.071 -11.501 S 41.519 45.999 36.517 45.999 z" style="stroke: none; stroke-width: 1; stroke-dasharray: none; stroke-linecap: butt; stroke-linejoin: miter; stroke-miterlimit: 10; fill: rgb(0,0,0); fill-rule: nonzero; opacity: 1;" transform=" matrix(1 0 0 1 0 0) " stroke-linecap="round"/>
	<path d="M 36.517 65.088 c -3.479 0 -6.309 -3.405 -6.309 -7.589 c 0 -0.553 0.448 -1 1 -1 s 1 0.447 1 1 c 0 3.082 1.933 5.589 4.308 5.589 s 4.308 -2.507 4.308 -5.589 s -1.933 -5.589 -4.308 -5.589 c -0.552 0 -1 -0.447 -1 -1 s 0.448 -1 1 -1 c 3.479 0 6.309 3.405 6.309 7.589 S 39.996 65.088 36.517 65.088 z" style="stroke: none; stroke-width: 1; stroke-dasharray: none; stroke-linecap: butt; stroke-linejoin: miter; stroke-miterlimit: 10; fill: rgb(0,0,0); fill-rule: nonzero; opacity: 1;" transform=" matrix(1 0 0 1 0 0) " stroke-linecap="round"/>
	<path d="M 78.932 71 H 36.517 c -0.552 0 -1 -0.447 -1 -1 s 0.448 -1 1 -1 h 42.415 c 5.001 0 9.071 -5.16 9.071 -11.501 s -4.07 -11.5 -9.071 -11.5 H 36.517 c -0.552 0 -1 -0.448 -1 -1 s 0.448 -1 1 -1 h 42.415 c 6.105 0 11.071 6.057 11.071 13.5 C 90.003 64.944 85.037 71 78.932 71 z" style="stroke: none; stroke-width: 1; stroke-dasharray: none; stroke-linecap: butt; stroke-linejoin: miter; stroke-miterlimit: 10; fill: rgb(0,0,0); fill-rule: nonzero; opacity: 1;" transform=" matrix(1 0 0 1 0 0) " stroke-linecap="round"/>
	<path d="M 76.316 58.499 H 46.588 c -0.553 0 -1 -0.447 -1 -1 s 0.447 -1 1 -1 h 29.728 c 0.553 0 1 0.447 1 1 C 77.316 58.052 76.869 58.499 76.316 58.499 z" style="stroke: none; stroke-width: 1; stroke-dasharray: none; stroke-linecap: butt; stroke-linejoin: miter; stroke-miterlimit: 10; fill: rgb(0,0,0); fill-rule: nonzero; opacity: 1;" transform=" matrix(1 0 0 1 0 0) " stroke-linecap="round"/>
	<path d="M 87.645 52.249 H 62.76 c -0.553 0 -1 -0.447 -1 -1 s 0.447 -1 1 -1 h 24.885 c 0.553 0 1 0.447 1 1 C 88.645 51.801 88.197 52.249 87.645 52.249 z" style="stroke: none; stroke-width: 1; stroke-dasharray: none; stroke-linecap: butt; stroke-linejoin: miter; stroke-miterlimit: 10; fill: rgb(0,0,0); fill-rule: nonzero; opacity: 1;" transform=" matrix(1 0 0 1 0 0) " stroke-linecap="round"/>
	<path d="M 68.775 64.749 H 53.186 c -0.553 0 -1 -0.447 -1 -1 s 0.447 -1 1 -1 h 15.589 c 0.553 0 1 0.447 1 1 S 69.328 64.749 68.775 64.749 z" style="stroke: none; stroke-width: 1; stroke-dasharray: none; stroke-linecap: butt; stroke-linejoin: miter; stroke-miterlimit: 10; fill: rgb(0,0,0); fill-rule: nonzero; opacity: 1;" transform=" matrix(1 0 0 1 0 0) " stroke-linecap="round"/>
	<path d="M 56.187 52.249 h -4.788 c -0.553 0 -1 -0.447 -1 -1 s 0.447 -1 1 -1 h 4.788 c 0.553 0 1 0.447 1 1 C 57.187 51.801 56.74 52.249 56.187 52.249 z" style="stroke: none; stroke-width: 1; stroke-dasharray: none; stroke-linecap: butt; stroke-linejoin: miter; stroke-miterlimit: 10; fill: rgb(0,0,0); fill-rule: nonzero; opacity: 1;" transform=" matrix(1 0 0 1 0 0) " stroke-linecap="round"/>
	<path d="M 79.335 64.749 h -2.076 c -0.553 0 -1 -0.447 -1 -1 s 0.447 -1 1 -1 h 2.076 c 0.553 0 1 0.447 1 1 S 79.887 64.749 79.335 64.749 z" style="stroke: none; stroke-width: 1; stroke-dasharray: none; stroke-linecap: butt; stroke-linejoin: miter; stroke-miterlimit: 10; fill: rgb(0,0,0); fill-rule: nonzero; opacity: 1;" transform=" matrix(1 0 0 1 0 0) " stroke-linecap="round"/>
	<path d="M 23.829 19.996 h 42.415 c 5.562 0 10.071 5.597 10.071 12.501 s -4.509 12.501 -10.071 12.501 H 23.829" style="stroke: none; stroke-width: 1; stroke-dasharray: none; stroke-linecap: butt; stroke-linejoin: miter; stroke-miterlimit: 10; fill: rgb(214,112,19); fill-rule: nonzero; opacity: 1;" transform=" matrix(1 0 0 1 0 0) " stroke-linecap="round"/>
	<ellipse cx="23.831" cy="32.501" rx="10.071" ry="12.501" style="stroke: none; stroke-width: 1; stroke-dasharray: none; stroke-linecap: butt; stroke-linejoin: miter; stroke-miterlimit: 10; fill: rgb(255,190,112); fill-rule: nonzero; opacity: 1;" transform=" matrix(1 0 0 1 0 0) "/>
	<path d="M 23.83 45.999 c -6.104 0 -11.071 -6.057 -11.071 -13.501 s 4.967 -13.501 11.071 -13.501 s 11.071 6.057 11.071 13.501 S 29.934 45.999 23.83 45.999 z M 23.83 20.997 c -5.002 0 -9.071 5.159 -9.071 11.501 s 4.069 11.501 9.071 11.501 s 9.07 -5.16 9.07 -11.501 S 28.831 20.997 23.83 20.997 z" style="stroke: none; stroke-width: 1; stroke-dasharray: none; stroke-linecap: butt; stroke-linejoin: miter; stroke-miterlimit: 10; fill: rgb(0,0,0); fill-rule: nonzero; opacity: 1;" transform=" matrix(1 0 0 1 0 0) " stroke-linecap="round"/>
	<path d="M 23.83 40.087 c -3.479 0 -6.309 -3.405 -6.309 -7.589 c 0 -0.552 0.448 -1 1 -1 s 1 0.448 1 1 c 0 3.082 1.933 5.589 4.308 5.589 s 4.308 -2.507 4.308 -5.589 s -1.933 -5.589 -4.308 -5.589 c -0.552 0 -1 -0.448 -1 -1 s 0.448 -1 1 -1 c 3.479 0 6.309 3.405 6.309 7.589 S 27.308 40.087 23.83 40.087 z" style="stroke: none; stroke-width: 1; stroke-dasharray: none; stroke-linecap: butt; stroke-linejoin: miter; stroke-miterlimit: 10; fill: rgb(0,0,0); fill-rule: nonzero; opacity: 1;" transform=" matrix(1 0 0 1 0 0) " stroke-linecap="round"/>
	<path d="M 66.245 45.999 H 23.83 c -0.552 0 -1 -0.448 -1 -1 s 0.448 -1 1 -1 h 42.415 c 5.001 0 9.071 -5.159 9.071 -11.501 s -4.07 -11.501 -9.071 -11.501 H 23.83 c -0.552 0 -1 -0.448 -1 -1 s 0.448 -1 1 -1 h 42.415 c 6.105 0 11.071 6.057 11.071 13.501 S 72.35 45.999 66.245 45.999 z" style="stroke: none; stroke-width: 1; stroke-dasharray: none; stroke-linecap: butt; stroke-linejoin: miter; stroke-miterlimit: 10; fill: rgb(0,0,0); fill-rule: nonzero; opacity: 1;" transform=" matrix(1 0 0 1 0 0) " stroke-linecap="round"/>
	<path d="M 63.628 33.498 H 40.91 c -0.552 0 -1 -0.448 -1 -1 c 0 -0.552 0.448 -1 1 -1 h 22.718 c 0.553 0 1 0.448 1 1 C 64.628 33.05 64.181 33.498 63.628 33.498 z" style="stroke: none; stroke-width: 1; stroke-dasharray: none; stroke-linecap: butt; stroke-linejoin: miter; stroke-miterlimit: 10; fill: rgb(0,0,0); fill-rule: nonzero; opacity: 1;" transform=" matrix(1 0 0 1 0 0) " stroke-linecap="round"/>
	<path d="M 55.08 27.247 H 33.901 c -0.552 0 -1 -0.448 -1 -1 s 0.448 -1 1 -1 H 55.08 c 0.553 0 1 0.448 1 1 S 55.633 27.247 55.08 27.247 z" style="stroke: none; stroke-width: 1; stroke-dasharray: none; stroke-linecap: butt; stroke-linejoin: miter; stroke-miterlimit: 10; fill: rgb(0,0,0); fill-rule: nonzero; opacity: 1;" transform=" matrix(1 0 0 1 0 0) " stroke-linecap="round"/>
	<path d="M 74.911 39.748 H 51.058 c -0.553 0 -1 -0.448 -1 -1 s 0.447 -1 1 -1 h 23.853 c 0.553 0 1 0.448 1 1 C 75.911 39.3 75.464 39.748 74.911 39.748 z" style="stroke: none; stroke-width: 1; stroke-dasharray: none; stroke-linecap: butt; stroke-linejoin: miter; stroke-miterlimit: 10; fill: rgb(0,0,0); fill-rule: nonzero; opacity: 1;" transform=" matrix(1 0 0 1 0 0) " stroke-linecap="round"/>
	<path d="M 44.578 39.748 h -4.079 c -0.552 0 -1 -0.448 -1 -1 s 0.448 -1 1 -1 h 4.079 c 0.552 0 1 0.448 1 1 S 45.13 39.748 44.578 39.748 z" style="stroke: none; stroke-width: 1; stroke-dasharray: none; stroke-linecap: butt; stroke-linejoin: miter; stroke-miterlimit: 10; fill: rgb(0,0,0); fill-rule: nonzero; opacity: 1;" transform=" matrix(1 0 0 1 0 0) " stroke-linecap="round"/>
	<path d="M 68.775 27.247 h -5.147 c -0.553 0 -1 -0.448 -1 -1 s 0.447 -1 1 -1 h 5.147 c 0.553 0 1 0.448 1 1 S 69.328 27.247 68.775 27.247 z" style="stroke: none; stroke-width: 1; stroke-dasharray: none; stroke-linecap: butt; stroke-linejoin: miter; stroke-miterlimit: 10; fill: rgb(0,0,0); fill-rule: nonzero; opacity: 1;" transform=" matrix(1 0 0 1 0 0) " stroke-linecap="round"/>
</g>
</svg>