<svg xmlns="http://www.w3.org/2000/svg" xmlns:xlink="http://www.w3.org/1999/xlink" version="1.1" width="256" height="256" viewBox="0 0 256 256" xml:space="preserve">
<g style="stroke: none; stroke-width: 0; stroke-dasharray: none; stroke-linecap: butt; stroke-linejoin: miter; stroke-miterlimit: 10; fill: none; fill-rule: nonzero; opacity: 1;" transform="translate(1.4065934065934016 1.4065934065934016) scale(2.81 2.81)">
	<path d="M 27.744 30.041 c -0.403 1.505 -0.196 3.078 0.583 4.427 c 0.343 0.595 0.325 1.323 -0.047 1.901 c -0.374 0.581 -0.722 1.185 -1.035 1.792 c -0.316 0.615 -0.939 0.997 -1.627 0.997 c -3.217 0 -5.833 2.617 -5.833 5.833 v 5.863 c 0 3.217 2.617 5.834 5.833 5.834 c 0.688 0 1.323 0.402 1.658 1.052 c 0.147 0.285 0.303 0.57 0.466 0.852 c 0.163 0.28 0.33 0.557 0.502 0.824 c 0.394 0.616 0.426 1.368 0.082 1.963 c -1.608 2.786 -0.65 6.36 2.135 7.969 l 5.078 2.932 c 0.917 0.529 1.918 0.78 2.907 0.78 c 2.018 0 3.982 -1.046 5.062 -2.915 l 0.011 -0.019 c 0.345 -0.585 0.99 -0.94 1.666 -0.893 c 0.693 0.032 1.39 0.032 2.069 0.001 c 0.7 -0.051 1.327 0.315 1.671 0.91 c 1.607 2.784 5.182 3.741 7.969 2.135 l 5.077 -2.932 c 1.35 -0.779 2.315 -2.037 2.718 -3.543 c 0.403 -1.505 0.196 -3.077 -0.583 -4.426 c -0.343 -0.595 -0.325 -1.324 0.046 -1.901 c 0.372 -0.576 0.721 -1.18 1.035 -1.792 c 0.316 -0.615 0.94 -0.997 1.628 -0.997 c 3.217 0 5.834 -2.617 5.834 -5.834 v -5.863 c 0 -3.217 -2.617 -5.833 -5.834 -5.833 c -0.688 0 -1.322 -0.403 -1.656 -1.047 c -0.146 -0.286 -0.303 -0.57 -0.469 -0.859 c -0.163 -0.28 -0.33 -0.555 -0.501 -0.822 c -0.395 -0.615 -0.426 -1.367 -0.082 -1.962 c 0.778 -1.35 0.985 -2.921 0.582 -4.427 c -0.402 -1.505 -1.368 -2.763 -2.718 -3.542 l -5.077 -2.932 c -2.788 -1.61 -6.36 -0.651 -7.97 2.135 l -0.01 0.018 c -0.346 0.584 -0.964 0.931 -1.667 0.893 c -0.687 -0.033 -1.383 -0.034 -2.069 0 c -0.688 0.032 -1.327 -0.315 -1.67 -0.911 c -0.779 -1.35 -2.037 -2.314 -3.542 -2.718 c -1.505 -0.401 -3.077 -0.196 -4.427 0.583 l -5.078 2.932 C 29.112 27.277 28.146 28.535 27.744 30.041 z M 31.79 32.467 c -0.245 -0.424 -0.31 -0.918 -0.183 -1.391 c 0.127 -0.473 0.43 -0.869 0.854 -1.114 l 5.078 -2.932 c 0.423 -0.245 0.917 -0.309 1.391 -0.183 c 0.473 0.127 0.869 0.431 1.114 0.855 c 1.095 1.897 3.128 3.006 5.327 2.905 c 0.557 -0.027 1.123 -0.027 1.681 0 c 2.207 0.114 4.238 -1.006 5.335 -2.905 l 0.01 -0.017 c 0.51 -0.864 1.628 -1.156 2.496 -0.656 l 5.077 2.932 c 0.425 0.245 0.728 0.641 0.854 1.113 c 0.127 0.473 0.062 0.967 -0.184 1.392 c -1.094 1.896 -1.025 4.24 0.18 6.123 c 0.142 0.219 0.277 0.443 0.405 0.665 c 0.131 0.227 0.256 0.455 0.377 0.69 c 1.026 1.982 3.022 3.213 5.211 3.213 c 1.012 0 1.834 0.822 1.834 1.833 v 5.863 c 0 1.012 -0.823 1.834 -1.836 1.834 c -2.191 0 -4.178 1.214 -5.183 3.168 c -0.256 0.497 -0.539 0.987 -0.841 1.456 c -1.187 1.843 -1.243 4.168 -0.147 6.066 c 0.506 0.875 0.205 1.999 -0.671 2.504 l -5.077 2.932 c -0.424 0.244 -0.918 0.309 -1.392 0.184 c -0.473 -0.127 -0.868 -0.431 -1.113 -0.855 c -1.048 -1.814 -2.96 -2.911 -5.041 -2.911 c -0.095 0 -0.191 0.003 -0.287 0.007 c -0.55 0.028 -1.118 0.027 -1.682 -0.001 c -2.205 -0.089 -4.239 1.008 -5.334 2.906 l -0.009 0.016 c -0.51 0.863 -1.626 1.158 -2.496 0.655 l -5.078 -2.932 c -0.875 -0.505 -1.177 -1.629 -0.671 -2.503 c 1.095 -1.896 1.026 -4.24 -0.179 -6.122 c -0.14 -0.219 -0.276 -0.442 -0.408 -0.67 c -0.131 -0.227 -0.256 -0.455 -0.375 -0.686 c -1.025 -1.982 -3.022 -3.214 -5.211 -3.214 c -1.011 0 -1.833 -0.822 -1.833 -1.834 v -5.863 c 0 -1.011 0.823 -1.833 1.835 -1.833 c 2.192 0 4.178 -1.214 5.183 -3.168 c 0.254 -0.494 0.537 -0.983 0.84 -1.456 C 32.83 36.69 32.886 34.365 31.79 32.467 z" style="stroke: none; stroke-width: 1; stroke-dasharray: none; stroke-linecap: butt; stroke-linejoin: miter; stroke-miterlimit: 10; fill: rgb(0,0,0); fill-rule: nonzero; opacity: 1;" transform=" matrix(1 0 0 1 0 0) " stroke-linecap="round"/>
	<path d="M 43.292 58.839 c 0.973 0.261 1.961 0.39 2.943 0.39 c 1.958 0 3.891 -0.514 5.633 -1.519 c 2.614 -1.51 4.484 -3.946 5.266 -6.862 s 0.38 -5.961 -1.129 -8.575 c -3.115 -5.396 -10.042 -7.253 -15.438 -4.137 c -5.396 3.116 -7.252 10.042 -4.136 15.438 C 37.938 56.188 40.375 58.058 43.292 58.839 z M 42.565 41.6 c 1.147 -0.662 2.4 -0.977 3.639 -0.977 c 2.525 0 4.984 1.31 6.335 3.649 c 0.976 1.689 1.234 3.656 0.729 5.54 s -1.713 3.458 -3.401 4.433 c -1.688 0.977 -3.656 1.234 -5.541 0.73 c -1.883 -0.505 -3.458 -1.713 -4.433 -3.402 C 37.88 48.087 39.079 43.613 42.565 41.6 z" style="stroke: none; stroke-width: 1; stroke-dasharray: none; stroke-linecap: butt; stroke-linejoin: miter; stroke-miterlimit: 10; fill: rgb(0,0,0); fill-rule: nonzero; opacity: 1;" transform=" matrix(1 0 0 1 0 0) " stroke-linecap="round"/>
	<path d="M 51.247 5.717 l 2.558 -2.201 c 0.837 -0.72 0.932 -1.983 0.212 -2.82 c -0.723 -0.838 -1.982 -0.932 -2.821 -0.212 l -6.285 5.407 c -0.019 0.016 -0.032 0.036 -0.05 0.053 c -0.05 0.046 -0.096 0.096 -0.141 0.147 c -0.041 0.047 -0.081 0.093 -0.118 0.143 c -0.04 0.054 -0.074 0.112 -0.108 0.17 c -0.031 0.053 -0.062 0.106 -0.088 0.162 c -0.028 0.061 -0.051 0.124 -0.073 0.188 c -0.021 0.06 -0.041 0.12 -0.056 0.181 c -0.015 0.063 -0.024 0.127 -0.034 0.191 c -0.006 0.044 -0.02 0.086 -0.023 0.13 c -0.002 0.026 0.003 0.052 0.002 0.078 c -0.001 0.024 -0.007 0.047 -0.007 0.072 c 0 0.04 0.009 0.077 0.012 0.117 c 0.004 0.07 0.01 0.138 0.021 0.207 c 0.011 0.066 0.026 0.129 0.043 0.193 c 0.016 0.061 0.034 0.121 0.056 0.18 C 44.372 8.168 44.4 8.23 44.43 8.291 c 0.027 0.055 0.056 0.109 0.088 0.162 c 0.036 0.058 0.075 0.112 0.116 0.165 c 0.023 0.03 0.041 0.065 0.066 0.094 l 5.408 6.284 c 0.396 0.459 0.954 0.695 1.517 0.695 c 0.462 0 0.926 -0.159 1.304 -0.484 c 0.837 -0.721 0.932 -1.983 0.211 -2.821 l -2.317 -2.693 c 18.952 2.283 33.691 18.453 33.691 38.009 c 0 2.244 -0.195 4.492 -0.58 6.681 c -0.191 1.088 0.535 2.125 1.623 2.316 c 0.117 0.021 0.234 0.03 0.349 0.03 c 0.953 0 1.797 -0.683 1.968 -1.653 c 0.425 -2.417 0.641 -4.898 0.641 -7.374 C 88.513 26.084 72.205 8.214 51.247 5.717 z" style="stroke: none; stroke-width: 1; stroke-dasharray: none; stroke-linecap: butt; stroke-linejoin: miter; stroke-miterlimit: 10; fill: rgb(0,0,0); fill-rule: nonzero; opacity: 1;" transform=" matrix(1 0 0 1 0 0) " stroke-linecap="round"/>
	<path d="M 14.712 58.146 c -1.042 -0.361 -2.183 0.186 -2.548 1.227 l -1.172 3.35 C 8.979 58 7.92 52.887 7.92 47.703 c 0 -16.044 10.125 -30.511 25.194 -35.997 c 1.038 -0.378 1.573 -1.526 1.195 -2.563 c -0.378 -1.038 -1.525 -1.571 -2.563 -1.195 C 15.103 14.007 3.92 29.983 3.92 47.703 c 0 5.745 1.18 11.412 3.419 16.647 l -3.191 -1.117 c -1.041 -0.361 -2.184 0.186 -2.548 1.228 s 0.185 2.183 1.227 2.548 l 7.825 2.738 c 0.001 0 0.003 0.001 0.005 0.001 c 0.217 0.078 0.441 0.132 0.672 0.132 c 0.34 0 0.685 -0.087 1.001 -0.27 c 0.504 -0.292 0.826 -0.771 0.943 -1.298 l 2.666 -7.617 C 16.304 59.652 15.754 58.512 14.712 58.146 z" style="stroke: none; stroke-width: 1; stroke-dasharray: none; stroke-linecap: butt; stroke-linejoin: miter; stroke-miterlimit: 10; fill: rgb(0,0,0); fill-rule: nonzero; opacity: 1;" transform=" matrix(1 0 0 1 0 0) " stroke-linecap="round"/>
	<path d="M 83.117 67.492 c -0.099 -0.521 -0.399 -0.982 -0.838 -1.281 s -0.975 -0.41 -1.499 -0.313 l -8.146 1.541 c -1.085 0.205 -1.799 1.251 -1.593 2.337 c 0.205 1.084 1.248 1.803 2.337 1.593 l 3.432 -0.649 C 69.625 80.238 58.283 86 46.216 86 c -8.987 0 -17.721 -3.175 -24.595 -8.94 c -0.846 -0.71 -2.108 -0.599 -2.817 0.247 c -0.71 0.846 -0.599 2.107 0.247 2.817 C 26.643 86.493 36.291 90 46.216 90 c 13.376 0 25.944 -6.412 33.874 -16.993 l 0.638 3.374 c 0.181 0.96 1.021 1.629 1.963 1.629 c 0.123 0 0.248 -0.011 0.373 -0.035 c 1.086 -0.205 1.799 -1.251 1.594 -2.336 L 83.117 67.492 z" style="stroke: none; stroke-width: 1; stroke-dasharray: none; stroke-linecap: butt; stroke-linejoin: miter; stroke-miterlimit: 10; fill: rgb(0,0,0); fill-rule: nonzero; opacity: 1;" transform=" matrix(1 0 0 1 0 0) " stroke-linecap="round"/>
</g>
</svg>